<svg viewBox="0 0 300 300" xmlns="http://www.w3.org/2000/svg"><defs><linearGradient id="a" x1="0%" y1="0%" x2="100%" y2="0%"><stop offset="0%" style="stop-color:#14b8a6"/><stop offset="100%" style="stop-color:#60a5fa"/></linearGradient><linearGradient id="b" x1="0%" y1="0%" x2="100%" y2="0%"><stop offset="0%" style="stop-color:#14b8a6"/><stop offset="50%" style="stop-color:#ff8c42"/><stop offset="100%" style="stop-color:#60a5fa"/></linearGradient></defs><g transform="translate(150 60)"><circle r="20" fill="#FF8C42" stroke="#E67635" stroke-width="2"/><path fill="#fff" d="m0-12 3.6 8.4H12L6 1.8l3 9L0 6l-9 4.8 3-9-6-5.4h8.4z"/></g><g transform="translate(100 140)" fill="#14B8A6" stroke="#0F766E"><circle cy="-25" r="16"/><rect x="-15" y="-10" width="30" height="60" rx="15"/></g><g transform="translate(200 140)" fill="#60A5FA" stroke="#3B82F6"><circle cy="-25" r="16"/><rect x="-15" y="-10" width="30" height="60" rx="15"/></g><path d="M120 120q30-15 60 0" stroke="url(#a)" stroke-width="4" fill="none" stroke-linecap="round"/><g transform="translate(115 200)"><rect x="-8" y="-15" width="16" height="25" rx="4" fill="#fff" stroke="#9CA3AF"/><rect x="-6" y="-12" width="12" height="20" rx="2" fill="#14B8A6"/><path fill="#fff" opacity=".9" d="M-4-9h8v1.5h-8z"/><circle cy="-5" r="1" fill="#fff" opacity=".8"/><path fill="#fff" opacity=".7" d="M-3-1h6v1h-6z"/></g><g transform="translate(185 200)"><rect x="-8" y="-15" width="16" height="25" rx="4" fill="#fff" stroke="#9CA3AF"/><rect x="-6" y="-12" width="12" height="20" rx="2" fill="#60A5FA"/><path fill="#fff" opacity=".9" d="M-4-9h8v1.5h-8z"/><circle cy="-5" r="1" fill="#fff" opacity=".8"/><path fill="#fff" opacity=".7" d="M-3-1h6v1h-6z"/></g><text x="150" y="270" font-family="Arial, sans-serif" font-size="28" font-weight="bold" text-anchor="middle" fill="url(#b)">
    Synergym
  </text></svg>